# xmcd
#
# Track frame offsets:
#	150
#	17662
#	34582
#	55040
#	80877
#	94750
#	112447
#	124800
#	143380
#	168382
#	190357
#	206887
#
# Disc length: 2996 seconds
#
# Revision: 0
# Processed by: cddbd v1.4PL0 Copyright (c) Steve Scherf et al.
# Submitted via: dBpowerAMP V4.0
#
DISCID=a90bb20c
DTITLE=The John Slaughter Band - All that stuff ain't real
DYEAR=1994
DGENRE=Blues
TTITLE0=Red tail light
TTITLE1=Get some rest
TTITLE2=Louisiana 1927
TTITLE3=I've got the proof
TTITLE4=Something you got
TTITLE5=Ready to fall
TTITLE6=Lost and found
TTITLE7=On my way to heaven
TTITLE8=St. James'  infirmary
TTITLE9=I can't swim
TTITLE10=Don't fool yourself
TTITLE11=Shame on you
EXTD=
EXTT0=
EXTT1=
EXTT2=
EXTT3=
EXTT4=
EXTT5=
EXTT6=
EXTT7=
EXTT8=
EXTT9=
EXTT10=
EXTT11=
PLAYORDER=
